<svg width="1074" height="260" viewBox="0 0 1074 260" fill="none" xmlns="http://www.w3.org/2000/svg">
<path fill-rule="evenodd" clip-rule="evenodd" d="M22.6502 14.8532C9.73347 24.3869 3.27513 36.4579 3.27513 51.066C3.27513 59.2158 6.42742 66.3661 12.732 72.5169C19.0366 78.6677 28.0321 81.9738 39.7186 82.4351L42.2558 65.3666C36.7201 64.7515 32.2608 63.0601 28.8778 60.2922C25.4949 57.3706 23.8034 53.8339 23.8034 49.6821C23.8034 41.071 28.5703 34.2282 38.104 29.1538C47.6378 23.9256 57.4022 21.3115 67.3972 21.3115C82.6205 21.3115 94.6145 24.4638 103.379 30.7684C111.529 36.7654 115.45 44.1464 115.143 52.9112C114.989 61.6761 111.683 68.2883 105.225 72.7476C98.9201 77.0531 91.1547 79.2059 81.9285 79.2059L79.8526 96.2744C93.2306 96.2744 103.764 99.2729 111.452 105.27C119.295 111.267 123.216 118.648 123.216 127.413C123.216 136.178 120.371 143.251 114.682 148.633C108.992 153.861 101.611 156.475 92.5386 156.475C83.62 156.475 75.7777 154.707 69.0118 151.17L61.8615 170.545C68.0123 175.005 79.5451 177.234 96.4598 177.234C113.528 177.234 127.983 172.929 139.823 164.318C145.622 160.1 150.001 155.071 152.96 149.231C155.317 154.322 158.629 158.966 162.896 163.164C172.583 172.544 185.654 177.234 202.107 177.234C218.56 177.234 232.553 171.314 244.086 159.474C249.695 153.717 253.958 147.057 256.875 139.494C258.804 148.535 263.193 156.425 270.042 163.164C279.73 172.544 292.8 177.234 309.253 177.234C325.707 177.234 339.7 171.314 351.233 159.474C362.919 147.48 368.762 131.565 368.762 111.728C368.762 98.6578 363.996 87.5864 354.462 78.514C345.082 69.4415 333.318 64.9053 319.172 64.9053C300.719 64.9053 285.496 70.6717 273.502 82.2044C267.811 87.674 263.487 94.0674 260.531 101.385C258.629 92.7114 254.224 85.0879 247.315 78.514C237.935 69.4415 226.172 64.9053 212.025 64.9053C193.573 64.9053 178.35 70.6717 166.355 82.2044C159.067 89.2086 154.022 97.7276 151.22 107.761C149.052 104.703 146.329 101.874 143.052 99.2729C133.518 91.5844 122.216 87.2789 109.146 86.3562C119.602 86.0487 128.521 82.2044 135.902 74.8235C143.283 67.4425 146.973 59.062 146.973 49.6821C147.127 40.1483 144.282 31.5372 138.439 23.8487C134.902 19.3894 130.52 15.4682 125.292 12.0853C120.063 8.70236 112.99 5.9345 104.071 3.78172C95.1527 1.47517 85.0808 0.321899 73.8556 0.321899C52.6353 0.321899 35.5668 5.16566 22.6502 14.8532ZM54.9419 166.624C62.0153 159.705 66.7822 148.018 69.2425 131.565L83.7737 33.0749C80.237 32.3061 76.5466 31.9216 72.7023 31.9216C64.3987 31.9216 57.0946 33.9207 50.7901 37.9187C50.4825 40.0714 49.8675 44.5308 48.9448 51.2967C48.176 58.0625 47.0227 66.9812 45.485 78.0526C44.1011 88.9703 43.0247 97.6583 42.2558 104.117C14.731 116.88 0.968582 132.333 0.968582 150.478C0.968582 158.167 3.4289 164.471 8.34954 169.392C13.2702 174.313 20.4974 176.773 30.0311 176.773C39.5649 176.773 47.8684 173.39 54.9419 166.624ZM25.8793 155.783C20.6511 155.783 18.0371 153.016 18.0371 147.48C18.0371 139.791 25.2642 131.872 39.7186 123.722L37.6427 138.023C36.7201 144.174 35.0286 148.71 32.5683 151.632C30.2618 154.399 28.0321 155.783 25.8793 155.783ZM189.19 96.0437C194.111 87.7402 200.185 83.5884 207.412 83.5884C214.793 83.5884 220.252 86.8175 223.789 93.2759C227.325 99.4267 229.094 107.73 229.094 118.187C229.094 128.643 226.556 137.946 221.482 146.096C216.561 154.246 210.411 158.321 203.03 158.321C195.649 158.321 190.113 155.399 186.422 149.556C182.886 143.712 181.117 136.331 181.117 127.413C181.579 114.804 184.27 104.347 189.19 96.0437ZM296.337 96.0437C301.257 87.7402 307.331 83.5884 314.558 83.5884C321.939 83.5884 327.398 86.8175 330.935 93.2759C334.472 99.4267 336.24 107.73 336.24 118.187C336.24 128.643 333.703 137.946 328.628 146.096C323.708 154.246 317.557 158.321 310.176 158.321C302.795 158.321 297.259 155.399 293.569 149.556C290.032 143.712 288.264 136.331 288.264 127.413C288.725 114.804 291.416 104.347 296.337 96.0437ZM439.696 99.2729L430.931 175.85H460.686C462.07 166.47 465.068 142.252 469.681 103.194C471.065 97.6583 473.525 93.1221 477.062 89.5854C480.599 86.0487 484.674 84.2803 489.287 84.2803C494.054 84.2803 497.514 85.6643 499.666 88.4321C501.819 91.2 502.896 94.6598 502.896 98.8116L497.36 149.786C497.36 156.245 499.666 162.396 504.279 168.239C508.893 174.082 515.966 177.004 525.5 177.004C536.562 177.004 545.797 173.03 553.206 165.083C561.918 173.184 573.42 177.234 587.71 177.234C597.09 177.234 606.162 175.543 614.927 172.16C623.846 168.777 631.534 164.395 637.993 159.013C638.706 158.402 639.406 157.79 640.095 157.177C641.248 161.202 642.994 164.813 645.332 168.008C649.945 174.159 657.249 177.234 667.244 177.234C677.24 177.234 685.543 174.159 692.155 168.008C698.767 161.857 702.073 152.862 702.073 141.021C702.073 124.722 693.77 110.037 677.163 96.9664C680.853 88.9703 685.774 84.9723 691.925 84.9723C698.229 84.9723 701.381 88.3552 701.381 95.1211C701.381 96.6588 701.228 98.2734 700.92 99.9649H701.843C708.147 99.9649 713.222 98.3503 717.066 95.1211C721.064 91.7382 723.063 87.4326 723.063 82.2044C723.063 76.9763 721.141 72.8245 717.297 69.7491C713.452 66.5199 708.07 64.9053 701.151 64.9053C691.617 64.9053 683.775 68.5189 677.624 75.7461V75.2848C677.624 68.3651 672.934 64.9053 663.554 64.9053C657.864 64.9053 652.252 65.751 646.716 67.4425L638.758 136.792C635.985 139.568 633.039 142.131 629.92 144.481C619.31 152.477 608.238 156.475 596.705 156.475C588.863 156.475 582.251 153.784 576.869 148.402C571.641 142.867 569.027 134.563 569.027 123.492C569.027 112.266 571.718 102.656 577.1 94.6598C582.636 86.51 589.017 82.4351 596.244 82.4351C599.627 82.4351 602.703 83.4346 605.47 85.4336C608.392 87.2789 609.853 90.8924 609.853 96.2744C609.853 101.503 607.469 106.961 602.703 112.651C598.089 118.34 591.016 122.185 581.482 124.184L584.711 137.792C601.165 134.871 614.081 129.719 623.461 122.338C632.995 114.957 637.762 105.347 637.762 93.5065C637.608 84.7416 633.841 77.822 626.46 72.7476C619.079 67.5194 609.468 64.9053 597.628 64.9053C581.021 64.9053 566.72 70.8255 554.726 82.6658C542.886 94.506 536.966 108.345 536.966 124.184C536.966 134.88 539.14 144.278 543.488 152.379C540.453 154.956 537.533 156.245 534.726 156.245C529.959 156.245 527.576 152.631 527.576 145.404C527.576 141.406 529.344 127.874 532.881 104.809C533.803 98.9654 534.265 94.8905 534.265 92.5839C534.265 84.5879 531.266 77.9758 525.269 72.7476C519.272 67.3656 511.122 64.6747 500.82 64.6747C486.827 64.6747 476.063 70.0566 468.528 80.8205C463.607 70.2104 452.228 64.9053 434.391 64.9053C425.472 64.9053 417.246 68.1345 409.711 74.5928C408.788 68.1345 403.483 64.9053 393.796 64.9053C390.413 64.9053 385.492 65.751 379.034 67.4425L366.348 175.85H397.256C397.871 168.623 400.869 145.865 406.251 107.576C407.174 102.041 409.326 96.8126 412.709 91.892C416.092 86.8175 420.398 84.2803 425.626 84.2803C430.854 84.2803 434.468 85.7411 436.467 88.6628C438.62 91.4306 439.696 94.9674 439.696 99.2729ZM673.241 113.112C682.468 122.031 687.081 130.95 687.081 139.868C687.081 150.786 683.698 156.245 676.932 156.245C671.704 156.245 669.09 153.016 669.09 146.557C669.09 146.403 670.474 135.255 673.241 113.112ZM790.209 162.242C794.822 172.083 804.202 177.004 818.349 177.004C821.413 177.004 824.491 176.5 827.583 175.493L827.541 175.85H858.679C858.987 172.16 861.908 149.248 867.444 107.115C868.367 100.503 870.519 95.0442 873.902 90.7387C877.439 86.2793 881.668 84.0497 886.588 84.0497C891.663 84.0497 895.276 85.4336 897.429 88.2015C899.582 90.9693 900.658 94.4292 900.658 98.5809L895.123 150.017C895.123 156.475 897.429 162.626 902.042 168.469C906.655 174.313 913.729 177.234 923.263 177.234C933.79 177.234 942.68 173.538 949.932 166.146C957.232 172.851 965.761 176.547 975.519 177.234C962.756 188.306 956.374 200.53 956.374 213.908C956.374 224.826 959.911 232.745 966.984 237.666C973.75 242.279 980.67 244.586 987.743 244.586C1000.04 244.586 1010.04 240.664 1017.73 232.822C1025.57 225.134 1030.34 214.062 1032.03 199.608L1038.26 151.401C1052.86 140.945 1064.55 131.103 1073.32 121.877L1066.63 107.807C1060.78 115.034 1052.17 123.03 1040.79 131.795L1049.1 66.7506C1046.02 65.3666 1041.87 64.6747 1036.64 64.6747C1031.41 64.6747 1026.42 66.1355 1021.65 69.0571C1014.58 66.2892 1006.81 64.9053 998.353 64.9053C980.209 64.9053 965.216 70.9023 953.376 82.8964C941.535 94.8905 935.615 110.959 935.615 131.103C935.615 139.72 937.242 147.285 940.496 153.797C938.016 155.429 935.347 156.245 932.489 156.245C927.722 156.245 925.338 152.708 925.338 145.635C925.338 141.79 927.107 128.182 930.644 104.809C931.566 98.8116 932.027 94.7367 932.027 92.5839C932.027 84.5879 929.029 77.9758 923.032 72.7476C917.035 67.5194 908.731 64.9053 898.121 64.9053C887.665 64.9053 878.669 68.5958 871.135 75.9768C870.673 68.442 865.291 64.6747 854.989 64.6747C851.606 64.6747 846.685 65.5204 840.227 67.2119L829.96 155.135C828.6 155.721 827.267 156.014 825.96 156.014C821.04 156.014 818.579 152.939 818.579 146.788C818.579 142.175 819.271 134.64 820.655 124.184C821.27 119.571 822.347 111.805 823.884 100.887C825.422 89.8161 826.883 78.5908 828.267 67.2119C825.653 65.6742 821.347 64.9053 815.35 64.9053C809.507 64.9053 804.509 66.2124 800.358 68.8264C793.899 66.2124 786.826 64.9053 779.137 64.9053H777.753C759.609 64.9053 744.616 70.9023 732.776 82.8964C720.935 94.8905 715.015 110.959 715.015 131.103C715.015 144.943 719.244 156.091 727.701 164.548C736.312 173.006 746.846 177.234 759.301 177.234C771.91 177.234 782.213 172.237 790.209 162.242ZM757.686 94.1985C763.53 86.6638 771.372 82.8964 781.213 82.8964C785.365 82.8964 789.671 83.819 794.13 85.6643L788.594 135.486C783.674 149.171 776.37 156.014 766.682 156.014C760.993 156.014 756.303 153.784 752.612 149.325C749.075 144.866 747.307 138.869 747.307 131.334C747.307 130.104 747.384 128.797 747.538 127.413C748.614 112.651 751.997 101.579 757.686 94.1985ZM978.286 94.1985C984.13 86.6638 991.972 82.8964 1001.81 82.8964C1005.81 82.8964 1010.19 83.819 1014.96 85.6643L1009.19 135.716C1004.27 149.248 996.969 156.014 987.282 156.014C981.592 156.014 976.902 153.784 973.212 149.325C969.675 144.866 967.907 138.869 967.907 131.334C967.907 130.104 967.984 128.797 968.138 127.413C969.214 112.651 972.597 101.579 978.286 94.1985ZM977.594 220.136C975.288 217.83 974.135 214.6 974.135 210.449C974.135 197.532 984.36 185 1004.81 172.852L1000.89 207.45C999.507 218.368 994.509 223.827 985.898 223.827C982.823 223.827 980.055 222.596 977.594 220.136ZM336.651 193.382C339.511 189.266 346.21 189.835 346.21 194.847C346.21 230.649 306.453 259.672 257.411 259.672C208.369 259.672 168.612 230.649 168.612 194.847C168.612 189.835 175.311 189.266 178.171 193.382C192.824 214.468 222.806 228.918 257.411 228.918C292.016 228.918 321.998 214.468 336.651 193.382Z" fill="white"/>
</svg>
