<svg xmlns="http://www.w3.org/2000/svg" version="1.1" xmlns:xlink="http://www.w3.org/1999/xlink" xmlns:svgjs="http://svgjs.dev/svgjs" width="2000" height="479" viewBox="0 0 2000 479"><g transform="matrix(1,0,0,1,-1.2121212121212466,8.511755947492077)"><svg viewBox="0 0 396 95" data-background-color="#111111" preserveAspectRatio="xMidYMid meet" height="479" width="2000" xmlns="http://www.w3.org/2000/svg" xmlns:xlink="http://www.w3.org/1999/xlink"><g id="tight-bounds" transform="matrix(1,0,0,1,0.2400000000000091,0.27234437953489987)"><svg viewBox="0 0 395.52 94.45531124093023" height="94.45531124093023" width="395.52"><g><svg viewBox="0 0 395.52 94.45531124093023" height="94.45531124093023" width="395.52"><g transform="matrix(1,0,0,1,0,58.37717170604651)"><svg viewBox="0 0 395.52 36.07813953488372" height="36.07813953488372" width="395.52"><g id="textblocktransform"><svg viewBox="0 0 395.52 36.07813953488372" height="36.07813953488372" width="395.52" id="textblock"><g><svg viewBox="0 0 395.52 36.07813953488372" height="36.07813953488372" width="395.52"><g transform="matrix(1,0,0,1,0,0)"><svg width="395.52" viewBox="3 -39.65 442.85 40.4" height="36.07813953488372" data-palette-color="#ffffff"><path d="M24.6-34.55L24.6 0 16.5 0 7.75-28.3Q8.15-24.7 8.38-21.68 8.6-18.65 8.6-14.5L8.6-14.5 8.6 0 3 0 3-34.55 11.05-34.55 19.8-6.25Q19.5-8.05 19.23-11.35 18.95-14.65 18.95-18.05L18.95-18.05 18.95-34.55 24.6-34.55ZM47.35-6.4Q47.35-5.1 47.7-4.48 48.05-3.85 48.85-3.45L48.85-3.45 47.6 0.65Q45.55 0.4 44.32-0.45 43.1-1.3 42.5-3.05L42.5-3.05Q40.2 0.75 36.05 0.75L36.05 0.75Q32.75 0.75 30.8-1.48 28.85-3.7 28.85-7.4L28.85-7.4Q28.85-11.7 31.52-13.95 34.2-16.2 39.3-16.2L39.3-16.2 41.35-16.2 41.35-18.05Q41.35-20.55 40.47-21.58 39.6-22.6 37.65-22.6L37.65-22.6Q35.3-22.6 31.8-21.3L31.8-21.3 30.4-25.3Q32.4-26.2 34.55-26.68 36.7-27.15 38.65-27.15L38.65-27.15Q47.35-27.15 47.35-18.35L47.35-18.35 47.35-6.4ZM37.7-3.7Q40.1-3.7 41.35-7L41.35-7 41.35-12.55 39.9-12.55Q37.35-12.55 36.17-11.4 35-10.25 35-7.85L35-7.85Q35-5.8 35.7-4.75 36.4-3.7 37.7-3.7L37.7-3.7ZM64.3-5L66.45-1.2Q64 0.75 60.7 0.75L60.7 0.75Q57.25 0.75 55.45-1.23 53.65-3.2 53.65-6.6L53.65-6.6 53.65-22 50.55-22 50.55-26.45 53.65-26.45 53.65-32.3 59.8-33.05 59.8-26.45 64.8-26.45 64.2-22 59.8-22 59.8-6.6Q59.8-4.2 61.84-4.2L61.84-4.2Q62.5-4.2 63-4.38 63.5-4.55 64.3-5L64.3-5ZM68.99-26.45L75.14-26.45 75.14 0 68.99 0 68.99-26.45ZM72.04-39.65Q73.69-39.65 74.72-38.6 75.74-37.55 75.74-35.9L75.74-35.9Q75.74-34.3 74.72-33.25 73.69-32.2 72.04-32.2L72.04-32.2Q70.39-32.2 69.37-33.25 68.34-34.3 68.34-35.9L68.34-35.9Q68.34-37.55 69.37-38.6 70.39-39.65 72.04-39.65L72.04-39.65ZM90.24-27.15Q95.24-27.15 98.02-23.65 100.79-20.15 100.79-13.25L100.79-13.25Q100.79-6.65 97.99-2.95 95.19 0.75 90.24 0.75L90.24 0.75Q85.29 0.75 82.49-2.88 79.69-6.5 79.69-13.25L79.69-13.25Q79.69-19.95 82.49-23.55 85.29-27.15 90.24-27.15L90.24-27.15ZM90.24-22.5Q88.09-22.5 87.09-20.38 86.09-18.25 86.09-13.25L86.09-13.25Q86.09-8.2 87.09-6.08 88.09-3.95 90.24-3.95L90.24-3.95Q92.39-3.95 93.39-6.08 94.39-8.2 94.39-13.25L94.39-13.25Q94.39-18.3 93.39-20.4 92.39-22.5 90.24-22.5L90.24-22.5ZM117.69-27.15Q120.54-27.15 122.19-25.1 123.84-23.05 123.84-19.6L123.84-19.6 123.84 0 117.69 0 117.69-18.9Q117.69-20.8 117.16-21.63 116.64-22.45 115.64-22.45L115.64-22.45Q113.54-22.45 111.49-18.5L111.49-18.5 111.49 0 105.34 0 105.34-26.45 110.69-26.45 111.14-23Q112.49-25.1 114.01-26.13 115.54-27.15 117.69-27.15L117.69-27.15ZM146.29-6.4Q146.29-5.1 146.64-4.48 146.99-3.85 147.79-3.45L147.79-3.45 146.54 0.65Q144.49 0.4 143.26-0.45 142.04-1.3 141.44-3.05L141.44-3.05Q139.14 0.75 134.99 0.75L134.99 0.75Q131.69 0.75 129.74-1.48 127.79-3.7 127.79-7.4L127.79-7.4Q127.79-11.7 130.46-13.95 133.14-16.2 138.24-16.2L138.24-16.2 140.29-16.2 140.29-18.05Q140.29-20.55 139.41-21.58 138.54-22.6 136.59-22.6L136.59-22.6Q134.24-22.6 130.74-21.3L130.74-21.3 129.34-25.3Q131.34-26.2 133.49-26.68 135.64-27.15 137.59-27.15L137.59-27.15Q146.29-27.15 146.29-18.35L146.29-18.35 146.29-6.4ZM136.64-3.7Q139.04-3.7 140.29-7L140.29-7 140.29-12.55 138.84-12.55Q136.29-12.55 135.11-11.4 133.94-10.25 133.94-7.85L133.94-7.85Q133.94-5.8 134.64-4.75 135.34-3.7 136.64-3.7L136.64-3.7ZM157.68 0.75Q154.98 0.75 153.41-0.93 151.83-2.6 151.83-5.4L151.83-5.4 151.83-37.05 157.98-37.7 157.98-5.65Q157.98-5 158.28-4.6 158.58-4.2 159.18-4.2L159.18-4.2Q159.53-4.2 159.86-4.3 160.18-4.4 160.28-4.4L160.28-4.4 161.48-0.2Q159.78 0.75 157.68 0.75L157.68 0.75ZM186.03-35.25Q188.68-35.25 190.7-34.38 192.73-33.5 194.63-31.7L194.63-31.7 191.58-28.05Q190.28-29.25 189.05-29.83 187.83-30.4 186.38-30.4L186.38-30.4Q183.38-30.4 181.68-27.4 179.98-24.4 179.98-17.35L179.98-17.35Q179.98-10.4 181.68-7.38 183.38-4.35 186.48-4.35L186.48-4.35Q188.03-4.35 189.18-4.98 190.33-5.6 191.88-6.9L191.88-6.9 194.93-3.4Q193.33-1.6 191.08-0.43 188.83 0.75 186.03 0.75L186.03 0.75Q180.18 0.75 176.73-3.8 173.28-8.35 173.28-17.35L173.28-17.35Q173.28-23.3 174.93-27.3 176.58-31.3 179.45-33.27 182.33-35.25 186.03-35.25L186.03-35.25ZM207.58-27.15Q212.58-27.15 215.35-23.65 218.13-20.15 218.13-13.25L218.13-13.25Q218.13-6.65 215.33-2.95 212.53 0.75 207.58 0.75L207.58 0.75Q202.63 0.75 199.83-2.88 197.03-6.5 197.03-13.25L197.03-13.25Q197.03-19.95 199.83-23.55 202.63-27.15 207.58-27.15L207.58-27.15ZM207.58-22.5Q205.43-22.5 204.43-20.38 203.43-18.25 203.43-13.25L203.43-13.25Q203.43-8.2 204.43-6.08 205.43-3.95 207.58-3.95L207.58-3.95Q209.73-3.95 210.73-6.08 211.73-8.2 211.73-13.25L211.73-13.25Q211.73-18.3 210.73-20.4 209.73-22.5 207.58-22.5L207.58-22.5ZM235.02-27.15Q237.87-27.15 239.52-25.1 241.17-23.05 241.17-19.6L241.17-19.6 241.17 0 235.02 0 235.02-18.9Q235.02-20.8 234.5-21.63 233.97-22.45 232.97-22.45L232.97-22.45Q230.87-22.45 228.82-18.5L228.82-18.5 228.82 0 222.67 0 222.67-26.45 228.02-26.45 228.47-23Q229.82-25.1 231.35-26.13 232.87-27.15 235.02-27.15L235.02-27.15ZM256.22-27.15Q258.37-27.15 260.12-26.43 261.87-25.7 263.47-24.15L263.47-24.15 260.82-20.65Q259.72-21.55 258.75-21.98 257.77-22.4 256.62-22.4L256.62-22.4Q254.37-22.4 253.22-20.28 252.07-18.15 252.07-13.1L252.07-13.1Q252.07-8.2 253.25-6.2 254.42-4.2 256.62-4.2L256.62-4.2Q257.72-4.2 258.62-4.6 259.52-5 260.72-5.85L260.72-5.85 263.47-2.3Q260.27 0.75 256.32 0.75L256.32 0.75Q251.22 0.75 248.4-2.73 245.57-6.2 245.57-13L245.57-13Q245.57-17.4 246.87-20.6 248.17-23.8 250.6-25.48 253.02-27.15 256.22-27.15L256.22-27.15ZM285.37-13.85Q285.37-13.4 285.22-11.3L285.22-11.3 271.57-11.3Q271.77-7.2 272.99-5.58 274.22-3.95 276.47-3.95L276.47-3.95Q278.02-3.95 279.27-4.48 280.52-5 281.97-6.15L281.97-6.15 284.52-2.65Q281.02 0.75 276.12 0.75L276.12 0.75Q270.92 0.75 268.14-2.85 265.37-6.45 265.37-13L265.37-13Q265.37-19.55 268.02-23.35 270.67-27.15 275.52-27.15L275.52-27.15Q280.17-27.15 282.77-23.78 285.37-20.4 285.37-13.85L285.37-13.85ZM279.37-15.3L279.37-15.65Q279.37-19.4 278.47-21.13 277.57-22.85 275.57-22.85L275.57-22.85Q273.72-22.85 272.74-21.18 271.77-19.5 271.57-15.3L271.57-15.3 279.37-15.3ZM301.31-27.1Q302.46-27.1 303.37-26.75L303.37-26.75 302.37-20.85Q301.37-21.1 300.51-21.1L300.51-21.1Q298.62-21.1 297.51-19.45 296.42-17.8 295.81-14.55L295.81-14.55 295.81 0 289.67 0 289.67-26.45 295.01-26.45 295.46-21.85Q297.31-27.1 301.31-27.1L301.31-27.1ZM317.36-5L319.51-1.2Q317.06 0.75 313.76 0.75L313.76 0.75Q310.31 0.75 308.51-1.23 306.71-3.2 306.71-6.6L306.71-6.6 306.71-22 303.61-22 303.61-26.45 306.71-26.45 306.71-32.3 312.86-33.05 312.86-26.45 317.86-26.45 317.26-22 312.86-22 312.86-6.6Q312.86-4.2 314.91-4.2L314.91-4.2Q315.56-4.2 316.06-4.38 316.56-4.55 317.36-5L317.36-5ZM346.96-34.55L353.21-34.55 345.21 0 337.26 0 328.96-34.55 335.41-34.55 341.31-5.6 346.96-34.55ZM374.81-13.85Q374.81-13.4 374.66-11.3L374.66-11.3 361.01-11.3Q361.21-7.2 362.43-5.58 363.66-3.95 365.91-3.95L365.91-3.95Q367.46-3.95 368.71-4.48 369.96-5 371.41-6.15L371.41-6.15 373.96-2.65Q370.46 0.75 365.56 0.75L365.56 0.75Q360.36 0.75 357.58-2.85 354.81-6.45 354.81-13L354.81-13Q354.81-19.55 357.46-23.35 360.11-27.15 364.96-27.15L364.96-27.15Q369.61-27.15 372.21-23.78 374.81-20.4 374.81-13.85L374.81-13.85ZM368.81-15.3L368.81-15.65Q368.81-19.4 367.91-21.13 367.01-22.85 365.01-22.85L365.01-22.85Q363.16-22.85 362.18-21.18 361.21-19.5 361.01-15.3L361.01-15.3 368.81-15.3ZM391.45-27.15Q394.3-27.15 395.95-25.1 397.6-23.05 397.6-19.6L397.6-19.6 397.6 0 391.45 0 391.45-18.9Q391.45-20.8 390.93-21.63 390.4-22.45 389.4-22.45L389.4-22.45Q387.3-22.45 385.25-18.5L385.25-18.5 385.25 0 379.1 0 379.1-26.45 384.45-26.45 384.9-23Q386.25-25.1 387.78-26.13 389.3-27.15 391.45-27.15L391.45-27.15ZM421.3-26.45L421.3 0 415.95 0 415.65-3.35Q414.4-1.3 412.85-0.28 411.3 0.75 409.25 0.75L409.25 0.75Q406.35 0.75 404.68-1.3 403-3.35 403-6.65L403-6.65 403-26.45 409.15-26.45 409.15-7Q409.15-3.9 411.25-3.9L411.25-3.9Q412.45-3.9 413.4-4.83 414.35-5.75 415.15-7.45L415.15-7.45 415.15-26.45 421.3-26.45ZM445.85-13.85Q445.85-13.4 445.7-11.3L445.7-11.3 432.05-11.3Q432.25-7.2 433.47-5.58 434.7-3.95 436.95-3.95L436.95-3.95Q438.5-3.95 439.75-4.48 441-5 442.45-6.15L442.45-6.15 445-2.65Q441.5 0.75 436.6 0.75L436.6 0.75Q431.4 0.75 428.62-2.85 425.85-6.45 425.85-13L425.85-13Q425.85-19.55 428.5-23.35 431.15-27.15 436-27.15L436-27.15Q440.65-27.15 443.25-23.78 445.85-20.4 445.85-13.85L445.85-13.85ZM439.85-15.3L439.85-15.65Q439.85-19.4 438.95-21.13 438.05-22.85 436.05-22.85L436.05-22.85Q434.2-22.85 433.22-21.18 432.25-19.5 432.05-15.3L432.05-15.3 439.85-15.3Z" opacity="1" transform="matrix(1,0,0,1,0,0)" fill="#ffffff" class="wordmark-text-0" data-fill-palette-color="primary" id="text-0"></path></svg></g></svg></g></svg></g></svg></g><g transform="matrix(1,0,0,1,175.91000310077519,0)"><svg viewBox="0 0 43.69999379844961 49.8599888372093" height="49.8599888372093" width="43.69999379844961"><g><svg xmlns="http://www.w3.org/2000/svg" data-name="Layer 1" viewBox="18 5 30 54" x="8" y="0" height="49.8599888372093" width="27.69999379844961" class="icon-icon-0" data-fill-palette-color="accent" id="icon-0"><path d="M47 27.67A1 1 0 0 0 46 28.67 13 13 0 0 1 20 28.67 1 1 0 0 0 18 28.67 15 15 0 0 0 32 43.62V57H24A1 1 0 0 0 24 59H42A1 1 0 0 0 42 57H34V43.62A15 15 0 0 0 48 28.67 1 1 0 0 0 47 27.67" fill="#ffffff" data-fill-palette-color="accent"></path><path d="M32.9 39H33.09A10.25 10.25 0 0 0 43.33 28.76V15.24A10.25 10.25 0 0 0 33.1 5H32.9A10.25 10.25 0 0 0 22.67 15.24V28.76A10.25 10.25 0 0 0 32.9 39M29 27H24.67V23H29A1 1 0 0 0 29 21H24.67V17H29A1 1 0 0 0 29 15H24.68A8.24 8.24 0 0 1 32.9 7H33.09A8.24 8.24 0 0 1 41.32 15H37A1 1 0 0 0 37 17H41.33V21H37A1 1 0 0 0 37 23H41.33V27H37A1 1 0 0 0 37 29H41.32A8.24 8.24 0 0 1 33.09 37H32.9A8.24 8.24 0 0 1 24.67 29H29A1 1 0 0 0 29 27" fill="#ffffff" data-fill-palette-color="accent"></path></svg></g></svg></g><g><rect width="175.91000310077519" height="3.2535638558958135" y="45.60642498131348" x="219.6099968992248" fill="#ffffff" data-fill-palette-color="accent"></rect><rect width="175.91000310077519" height="3.2535638558958135" y="45.60642498131348" x="0" fill="#ffffff" data-fill-palette-color="accent"></rect><rect width="175.91000310077519" height="3.2535638558958135" y="39.099297269521855" x="219.6099968992248" fill="#ffffff" data-fill-palette-color="accent"></rect><rect width="175.91000310077519" height="3.2535638558958135" y="39.099297269521855" x="0" fill="#ffffff" data-fill-palette-color="accent"></rect></g></svg></g><defs></defs></svg><rect width="395.52" height="94.45531124093023" fill="none" stroke="none" visibility="hidden"></rect></g></svg></g></svg>